# Alias OBJ Model File
# Exported from SketchUp, (c) 2000-2012 Trimble Navigation Limited
# File units = millimeters

mtllib Cake.mtl

g Mesh1 Group1 Model

usemtl Color_B04
v 1062.57 468.7 1062.57
vt 100.995 17.328
vn 0 1 -0
v 1301.38 468.7 751.35
vt 110.397 29.5807
v 1451.5 468.7 388.927
vt 116.307 43.8493
v 1502.7 468.7 2.27374e-13
vt 118.323 59.1614
v 1451.5 468.7 -388.927
vt 116.307 74.4735
v 1301.38 468.7 -751.35
vt 110.397 88.7421
v 1062.57 468.7 -1062.57
vt 100.995 100.995
v 751.35 468.7 -1301.38
vt 88.7421 110.397
v 388.927 468.7 -1451.5
vt 74.4735 116.307
v 0 468.7 -1502.7
vt 59.1614 118.323
v -388.927 468.7 -1451.5
vt 43.8493 116.307
v -751.35 468.7 -1301.38
vt 29.5807 110.397
v -1062.57 468.7 -1062.57
vt 17.328 100.995
v -1301.38 468.7 -751.35
vt 7.92613 88.7421
v -1451.5 468.7 -388.927
vt 2.01588 74.4735
v -1502.7 468.7 -2.27374e-13
vt 0 59.1614
v -1451.5 468.7 388.927
vt 2.01588 43.8493
v -1301.38 468.7 751.35
vt 7.92613 29.5807
v -1062.57 468.7 1062.57
vt 17.328 17.328
v -751.35 468.7 1301.38
vt 29.5807 7.92613
v -388.927 468.7 1451.5
vt 43.8493 2.01588
v 0 468.7 1502.7
vt 59.1614 0
v 388.927 468.7 1451.5
vt 74.4735 2.01588
v 751.35 468.7 1301.38
vt 88.7421 7.92613
f 1/1/1 2/2/1 3/3/1 4/4/1 5/5/1 6/6/1 7/7/1 8/8/1 9/9/1 10/10/1 11/11/1 12/12/1 13/13/1 14/14/1 15/15/1 16/16/1 17/17/1 18/18/1 19/19/1 20/20/1 21/21/1 22/22/1 23/23/1 24/24/1 

v 1062.57 0 1062.57
vt 75.229 0
vn 0.707107 0 0.707107
v 1301.38 0 751.35
vt 90.6732 0
vn 0.866025 0 0.5
vt 90.6732 18.4528
vt 75.229 18.4528
f 25/25/2 26/26/3 2/27/3 1/28/2 

vt -110.397 29.5807
vn 0 -1 -0
vt -100.995 17.328
v 751.35 0 1301.38
vt -88.7421 7.92613
v 388.927 0 1451.5
vt -74.4735 2.01588
v 0 0 1502.7
vt -59.1614 0
v -388.927 0 1451.5
vt -43.8493 2.01588
v -751.35 0 1301.38
vt -29.5807 7.92613
v -1062.57 0 1062.57
vt -17.328 17.328
v -1301.38 0 751.35
vt -7.92613 29.5807
v -1451.5 0 388.927
vt -2.01588 43.8493
v -1502.7 0 -2.27374e-13
v -1451.5 0 -388.927
vt -2.01588 74.4735
v -1301.38 0 -751.35
vt -7.92613 88.7421
v -1062.57 0 -1062.57
vt -17.328 100.995
v -751.35 0 -1301.38
vt -29.5807 110.397
v -388.927 0 -1451.5
vt -43.8493 116.307
v 0 0 -1502.7
vt -59.1614 118.323
v 388.927 0 -1451.5
vt -74.4735 116.307
v 751.35 0 -1301.38
vt -88.7421 110.397
v 1062.57 0 -1062.57
vt -100.995 100.995
v 1301.38 0 -751.35
vt -110.397 88.7421
v 1451.5 0 -388.927
vt -116.307 74.4735
v 1502.7 0 2.27374e-13
vt -118.323 59.1614
v 1451.5 0 388.927
vt -116.307 43.8493
f 26/29/4 25/30/4 27/31/4 28/32/4 29/33/4 30/34/4 31/35/4 32/36/4 33/37/4 34/38/4 35/16/4 36/39/4 37/40/4 38/41/4 39/42/4 40/43/4 41/44/4 42/45/4 43/46/4 44/47/4 45/48/4 46/49/4 47/50/4 48/51/4 

vn 0.5 0 0.866025
f 27/25/5 25/26/2 1/27/2 24/28/5 

vt 69.576 0
vn 0.258819 0 0.965926
vt 85.0202 0
vt 85.0202 18.4528
vt 69.576 18.4528
f 28/52/6 27/53/5 24/54/5 23/55/6 

vt 58.6553 0
vn -3.35941e-16 0 1
vt 74.0995 0
vt 74.0995 18.4528
vt 58.6553 18.4528
f 29/56/7 28/57/6 23/58/6 22/59/7 

vt 43.2111 0
vn -0.258819 0 0.965926
vt 43.2111 18.4528
f 30/60/8 29/56/7 22/59/7 21/61/8 

vt 24.2958 0
vn -0.5 0 0.866025
vt 39.74 0
vt 39.74 18.4528
vt 24.2958 18.4528
f 31/62/9 30/63/8 21/64/8 20/65/9 

vt 3.1986 0
vn -0.707107 0 0.707107
vt 18.6428 0
vt 18.6428 18.4528
vt 3.1986 18.4528
f 32/66/10 31/67/9 20/68/9 19/69/10 

vt -18.6428 0
vn -0.866025 0 0.5
vt -3.1986 0
vt -3.1986 18.4528
vt -18.6428 18.4528
f 33/70/11 32/71/10 19/72/10 18/73/11 

vt -39.74 0
vn -0.965926 0 0.258819
vt -24.2958 0
vt -24.2958 18.4528
vt -39.74 18.4528
f 34/74/12 33/75/11 18/76/11 17/77/12 

vt -58.6553 0
vn -1 0 -1.81968e-16
vt -43.2111 0
vt -43.2111 18.4528
vt -58.6553 18.4528
f 35/78/13 34/79/12 17/80/12 16/81/13 

vt -74.0995 0
vn -0.965926 0 -0.258819
vt -74.0995 18.4528
f 36/82/14 35/78/13 16/81/13 15/83/14 

vt -85.0202 0
vn -0.866025 0 -0.5
vt -69.576 0
vt -69.576 18.4528
vt -85.0202 18.4528
f 37/84/15 36/85/14 15/86/14 14/87/15 

vt -90.6732 0
vn -0.707107 0 -0.707107
vt -75.229 0
vt -75.229 18.4528
vt -90.6732 18.4528
f 38/88/16 37/89/15 14/90/15 13/91/16 

vn -0.5 0 -0.866025
f 39/88/17 38/89/16 13/90/16 12/91/17 

vn -0.258819 0 -0.965926
f 40/84/18 39/85/17 12/86/17 11/87/18 

vn 2.37958e-16 0 -1
f 41/82/19 40/78/18 11/81/18 10/83/19 

vn 0.258819 0 -0.965926
f 42/78/20 41/79/19 10/80/19 9/81/20 

vn 0.5 0 -0.866025
f 43/74/21 42/75/20 9/76/20 8/77/21 

vn 0.707107 0 -0.707107
f 44/70/22 43/71/21 8/72/21 7/73/22 

vn 0.866025 0 -0.5
f 45/66/23 44/67/22 7/68/22 6/69/23 

vn 0.965926 0 -0.258819
f 46/62/24 45/63/23 6/64/23 5/65/24 

vn 1 0 4.47921e-16
f 47/60/25 46/56/24 5/59/24 4/61/25 

vn 0.965926 0 0.258819
f 48/56/26 47/57/25 4/58/25 3/59/26 

f 26/52/3 48/53/26 3/54/26 2/55/3 

g Mesh2 Group2 Model

usemtl Color_E05
v 946.65 468.7 539.199
vt -84.0302 23.281
v 771.507 468.7 778.835
vt -77.1348 13.8466
v 540.311 468.7 964.975
vt -68.0326 6.51821
v 268.815 468.7 1084.93
vt -57.3438 1.79541
v -24.4774 468.7 1130.54
vt -45.7969 0
v -319.579 468.7 1098.68
vt -34.1787 1.25433
v -596.379 468.7 991.525
vt -23.281 5.47293
v -836.015 468.7 816.382
vt -13.8466 12.3683
v -1022.15 468.7 585.186
vt -6.51821 21.4705
v -1142.11 468.7 313.69
vt -1.79541 32.1594
v -1187.72 468.7 20.3976
vt 0 43.7063
v -1155.86 468.7 -274.704
vt -1.25433 55.3245
v -1048.7 468.7 -551.504
vt -5.47293 66.2221
v -873.562 468.7 -791.14
vt -12.3683 75.6566
v -642.366 468.7 -977.28
vt -21.4705 82.9849
v -370.87 468.7 -1097.24
vt -32.1594 87.7077
v -77.5777 468.7 -1142.84
vt -43.7063 89.5031
v 217.524 468.7 -1110.98
vt -55.3245 88.2488
v 494.324 468.7 -1003.83
vt -66.2221 84.0302
v 733.96 468.7 -828.688
vt -75.6566 77.1348
v 920.1 468.7 -597.491
vt -82.9849 68.0326
v 1040.06 468.7 -325.995
vt -87.7077 57.3438
v 1085.66 468.7 -32.7027
vt -89.5031 45.7969
v 1053.8 468.7 262.399
vt -88.2488 34.1787
f 49/92/4 50/93/4 51/94/4 52/95/4 53/96/4 54/97/4 55/98/4 56/99/4 57/100/4 58/101/4 59/102/4 60/103/4 61/104/4 62/105/4 63/106/4 64/107/4 65/108/4 66/109/4 67/110/4 68/111/4 69/112/4 70/113/4 71/114/4 72/115/4 

vt 56.694 0
vn 0.723426 0 0.690402
vt 68.3797 0
vn 0.877465 0 0.479641
v 946.65 771.8 539.199
vt 68.3797 11.9331
v 771.507 771.8 778.835
vt 56.694 11.9331
f 50/116/27 49/117/28 73/118/28 74/119/27 

vt 52.0464 0
vt 63.7321 0
vn 0.971706 0 0.236193
v 1053.8 771.8 262.399
vt 63.7321 11.9331
vt 52.0464 11.9331
f 49/120/28 72/121/29 75/122/29 73/123/28 

vt 43.4538 0
vt 55.1395 0
vn 0.999727 0 -0.023351
v 1085.66 771.8 -32.7027
vt 55.1395 11.9331
vt 43.4538 11.9331
f 72/124/29 71/125/30 76/126/30 75/127/29 

vt 31.5017 0
vt 43.1874 0
vn 0.959619 0 -0.281304
v 1040.06 771.8 -325.995
vt 43.1874 11.9331
vt 31.5017 11.9331
f 71/128/30 70/129/31 77/130/31 76/131/30 

vt 17.0046 0
vt 28.6903 0
vn 0.854114 0 -0.520086
v 920.1 771.8 -597.491
vt 28.6903 11.9331
vt 17.0046 11.9331
f 70/132/31 69/133/32 78/134/32 77/135/31 

vt 0.950476 0
vt 12.6362 0
vn 0.690402 0 -0.723426
v 733.96 771.8 -828.688
vt 12.6362 11.9331
vt 0.950476 11.9331
f 69/136/32 68/137/33 79/138/33 78/139/32 

vt -15.5666 0
vt -3.88088 0
vn 0.479641 0 -0.877465
v 494.324 771.8 -1003.83
vt -3.88088 11.9331
vt -15.5666 11.9331
f 68/140/33 67/141/34 80/142/34 79/143/33 

vt -31.421 0
vt -19.7353 0
vn 0.236193 0 -0.971706
v 217.524 771.8 -1110.98
vt -19.7353 11.9331
vt -31.421 11.9331
f 67/144/34 66/145/35 81/146/35 80/147/34 

vt -45.5323 0
vt -33.8466 0
vn -0.023351 0 -0.999727
v -77.5777 771.8 -1142.84
vt -33.8466 11.9331
vt -45.5323 11.9331
f 66/148/35 65/149/36 82/150/36 81/151/35 

vt -56.9388 0
vt -45.2531 0
vn -0.281304 0 -0.959619
v -370.87 771.8 -1097.24
vt -45.2531 11.9331
vt -56.9388 11.9331
f 65/152/36 64/153/37 83/154/37 82/155/36 

vt -64.8632 0
vt -53.1775 0
vn -0.520086 0 -0.854114
v -642.366 771.8 -977.28
vt -53.1775 11.9331
vt -64.8632 11.9331
f 64/156/37 63/157/38 84/158/38 83/159/37 

vt -68.7655 0
vt -57.0798 0
vn -0.723426 0 -0.690402
v -873.562 771.8 -791.14
vt -57.0798 11.9331
vt -68.7655 11.9331
f 63/160/38 62/161/39 85/162/39 84/163/38 

vt -68.3797 0
vt -56.694 0
vn -0.877465 0 -0.479641
v -1048.7 771.8 -551.504
vt -56.694 11.9331
vt -68.3797 11.9331
f 62/164/39 61/165/40 86/166/40 85/167/39 

vt -63.7321 0
vt -52.0464 0
vn -0.971706 0 -0.236193
v -1155.86 771.8 -274.704
vt -52.0464 11.9331
vt -63.7321 11.9331
f 61/168/40 60/169/41 87/170/41 86/171/40 

vt -55.1395 0
vt -43.4538 0
vn -0.999727 0 0.023351
v -1187.72 771.8 20.3976
vt -43.4538 11.9331
vt -55.1395 11.9331
f 60/172/41 59/173/42 88/174/42 87/175/41 

vt -43.1874 0
vt -31.5017 0
vn -0.959619 0 0.281304
v -1142.11 771.8 313.69
vt -31.5017 11.9331
vt -43.1874 11.9331
f 59/176/42 58/177/43 89/178/43 88/179/42 

vt -28.6903 0
vt -17.0046 0
vn -0.854114 0 0.520086
v -1022.15 771.8 585.186
vt -17.0046 11.9331
vt -28.6903 11.9331
f 58/180/43 57/181/44 90/182/44 89/183/43 

vt -12.6362 0
vt -0.950476 0
vn -0.690402 0 0.723426
v -836.015 771.8 816.382
vt -0.950476 11.9331
vt -12.6362 11.9331
f 57/184/44 56/185/45 91/186/45 90/187/44 

vt 3.88088 0
vt 15.5666 0
vn -0.479641 0 0.877465
v -596.379 771.8 991.525
vt 15.5666 11.9331
vt 3.88088 11.9331
f 56/188/45 55/189/46 92/190/46 91/191/45 

vt 19.7353 0
vt 31.421 0
vn -0.236193 0 0.971706
v -319.579 771.8 1098.68
vt 31.421 11.9331
vt 19.7353 11.9331
f 55/192/46 54/193/47 93/194/47 92/195/46 

vt 33.8466 0
vt 45.5323 0
vn 0.023351 0 0.999727
v -24.4774 771.8 1130.54
vt 45.5323 11.9331
vt 33.8466 11.9331
f 54/196/47 53/197/48 94/198/48 93/199/47 

vt 45.2531 0
vt 56.9388 0
vn 0.281304 0 0.959619
v 268.815 771.8 1084.93
vt 56.9388 11.9331
vt 45.2531 11.9331
f 53/200/48 52/201/49 95/202/49 94/203/48 

vt 53.1775 0
vt 64.8632 0
vn 0.520086 0 0.854114
v 540.311 771.8 964.975
vt 64.8632 11.9331
vt 53.1775 11.9331
f 52/204/49 51/205/50 96/206/50 95/207/49 

vt 57.0798 0
vt 68.7655 0
vt 68.7655 11.9331
vt 57.0798 11.9331
f 51/208/50 50/209/27 74/210/27 96/211/50 

vt 77.1348 13.8466
vt 84.0302 23.281
vt 88.2488 34.1787
vt 89.5031 45.7969
vt 87.7077 57.3438
vt 82.9849 68.0326
vt 75.6566 77.1348
vt 66.2221 84.0302
vt 55.3245 88.2488
vt 43.7063 89.5031
vt 32.1594 87.7077
vt 21.4705 82.9849
vt 12.3683 75.6566
vt 5.47293 66.2221
vt 1.25433 55.3245
vt 1.79541 32.1594
vt 6.51821 21.4705
vt 13.8466 12.3683
vt 23.281 5.47293
vt 34.1787 1.25433
vt 45.7969 0
vt 57.3438 1.79541
vt 68.0326 6.51821
f 74/212/1 73/213/1 75/214/1 76/215/1 77/216/1 78/217/1 79/218/1 80/219/1 81/220/1 82/221/1 83/222/1 84/223/1 85/224/1 86/225/1 87/226/1 88/102/1 89/227/1 90/228/1 91/229/1 92/230/1 93/231/1 94/232/1 95/233/1 96/234/1 

g Mesh3 Group3 Model

usemtl Color_B01
v -552.423 771.8 -289.55
vt -33.7575 3.32111e-31
vn -0.89026 -3.59558e-32 -0.455454
v -605.8 771.8 -139.603
vt -27.4912 3.32111e-31
vn -0.977805 -3.52128e-32 -0.209518
v -605.8 1001 -139.603
vt -27.4912 9.02362
v -552.423 1001 -289.55
vt -33.7575 9.02362
f 97/235/51 98/236/52 99/237/52 100/238/51 

vt -0.501909 29.0023
vn 3.28584e-32 -1 1.47178e-32
vt -2.60334 34.9058
v -462.057 771.8 -420.572
vt -6.16108 40.0641
v -340.858 771.8 -523.742
vt -10.9327 44.1259
v -197.087 771.8 -592.027
vt -16.593 46.8143
v -40.5411 771.8 -620.776
vt -22.7562 47.9461
v 118.111 771.8 -608.027
vt -29.0023 47.4442
v 268.058 771.8 -554.651
vt -34.9058 45.3428
v 399.081 771.8 -464.284
vt -40.0641 41.7851
v 502.25 771.8 -343.085
vt -44.1259 37.0135
v 570.536 771.8 -199.314
vt -46.8143 31.3532
v 599.284 771.8 -42.7684
vt -47.9461 25.19
v 586.535 771.8 115.884
vt -47.4442 18.9438
v 533.159 771.8 265.831
vt -45.3428 13.0404
v 442.792 771.8 396.853
vt -41.7851 7.88202
v 321.594 771.8 500.023
vt -37.0135 3.82023
v 177.823 771.8 568.308
vt -31.3532 1.13182
v 21.2768 771.8 597.057
vt -25.19 1.2182e-62
v -137.375 771.8 584.308
vt -18.9438 0.501909
v -287.322 771.8 530.932
vt -13.0404 2.60334
v -418.345 771.8 440.565
vt -7.88202 6.16108
v -521.514 771.8 319.366
vt -3.82023 10.9327
v -589.8 771.8 175.595
vt -1.13182 16.593
v -618.548 771.8 19.0495
vt 0 22.7562
f 98/239/53 97/240/53 101/241/53 102/242/53 103/243/53 104/244/53 105/245/53 106/246/53 107/247/53 108/248/53 109/249/53 110/250/53 111/251/53 112/252/53 113/253/53 114/254/53 115/255/53 116/256/53 117/257/53 118/258/53 119/259/53 120/260/53 121/261/53 122/262/53 

vt -36.4786 6.25785e-31
vn -0.742045 -3.42485e-32 -0.670351
vt -30.2123 6.25785e-31
vt -30.2123 9.02362
v -462.057 1001 -420.572
vt -36.4786 9.02362
f 101/263/54 97/264/51 100/265/51 123/266/54 

vt 2.60334 34.9058
vn -3.28584e-32 1 -1.47178e-32
vt 0.501909 29.0023
v -618.548 1001 19.0495
vt 2.96502e-31 22.7562
v -589.8 1001 175.595
vt 1.13182 16.593
v -521.514 1001 319.366
vt 3.82023 10.9327
v -418.345 1001 440.565
vt 7.88202 6.16108
v -287.322 1001 530.932
vt 13.0404 2.60334
v -137.375 1001 584.308
vt 18.9438 0.501909
v 21.2768 1001 597.057
vt 25.19 -1.32808e-31
v 177.823 1001 568.308
vt 31.3532 1.13182
v 321.594 1001 500.023
vt 37.0135 3.82023
v 442.792 1001 396.853
vt 41.7851 7.88202
v 533.159 1001 265.831
vt 45.3428 13.0404
v 586.535 1001 115.884
vt 47.4442 18.9438
v 599.284 1001 -42.7684
vt 47.9461 25.19
v 570.536 1001 -199.314
vt 46.8143 31.3532
v 502.25 1001 -343.085
vt 44.1259 37.0135
v 399.081 1001 -464.284
vt 40.0641 41.7851
v 268.058 1001 -554.651
vt 34.9058 45.3428
v 118.111 1001 -608.027
vt 29.0023 47.4442
v -40.5411 1001 -620.776
vt 22.7562 47.9461
v -197.087 1001 -592.027
vt 16.593 46.8143
v -340.858 1001 -523.742
vt 10.9327 44.1259
vt 6.16108 40.0641
f 100/267/55 99/268/55 124/269/55 125/270/55 126/271/55 127/272/55 128/273/55 129/274/55 130/275/55 131/276/55 132/277/55 133/278/55 134/279/55 135/280/55 136/281/55 137/282/55 138/283/55 139/284/55 140/285/55 141/286/55 142/287/55 143/288/55 144/289/55 123/290/55 

vt -28.9494 6.18472e-32
vt -22.6831 6.18472e-32
vn -0.998714 -3.207e-32 0.0506954
vt -22.6831 9.02362
vt -28.9494 9.02362
f 98/291/52 122/292/56 124/293/56 99/294/52 

vt -22.3819 -1.21908e-31
vt -16.1156 -1.21908e-31
vn -0.951563 -2.67418e-32 0.307454
vt -16.1156 9.02362
vt -22.3819 9.02362
f 122/295/56 121/296/57 125/297/57 124/298/56 

vt -14.5027 -1.9023e-31
vt -8.23641 -1.9023e-31
vn -0.839564 -1.95911e-32 0.543261
vt -8.23641 9.02362
vt -14.5027 9.02362
f 121/299/57 120/300/58 126/301/58 125/302/57 

vt -5.84866 -1.54738e-31
vt 0.41762 -1.54738e-31
vn -0.670351 -1.11054e-32 0.742045
vt 0.41762 9.02362
vt -5.84866 9.02362
f 120/303/58 119/304/59 127/305/59 126/306/58 

vt 2.99043 -6.24368e-32
vt 9.25671 -6.24368e-32
vn -0.455454 -1.86279e-33 0.89026
vt 9.25671 9.02362
vt 2.99043 9.02362
f 119/307/59 118/308/60 128/309/60 127/310/59 

vt 11.4122 1.94282e-32
vt 17.6785 1.94282e-32
vn -0.209518 7.50673e-33 0.977805
vt 17.6785 9.02362
vt 11.4122 9.02362
f 118/311/60 117/312/61 129/313/61 128/314/60 

vt 18.8427 2.42897e-32
vt 25.109 2.42897e-32
vn 0.0506954 1.63647e-32 0.998714
vt 25.109 9.02362
vt 18.8427 9.02362
f 117/315/61 116/316/62 130/317/62 129/318/61 

vt 24.7757 -9.28646e-32
vt 31.0419 -9.28646e-32
vn 0.307454 2.41074e-32 0.951563
vt 31.0419 9.02362
vt 24.7757 9.02362
f 116/319/62 115/320/63 131/321/63 130/322/62 

vt 28.8066 -3.40452e-31
vt 35.0729 -3.40452e-31
vn 0.543261 3.02073e-32 0.839564
vt 35.0729 9.02362
vt 28.8066 9.02362
f 115/323/63 114/324/64 132/325/64 131/326/63 

vt 30.661 -6.85325e-31
vt 36.9273 -6.85325e-31
vn 0.742045 3.42485e-32 0.670351
vt 36.9273 9.02362
vt 30.661 9.02362
f 114/327/64 113/328/65 133/329/65 132/330/64 

vt 30.2123 -1.0594e-30
vt 36.4786 -1.0594e-30
vn 0.89026 3.59558e-32 0.455454
vt 36.4786 9.02362
vt 30.2123 9.02362
f 113/331/65 112/332/66 134/333/66 133/334/65 

vt 27.4912 -1.37622e-30
vt 33.7575 -1.37622e-30
vn 0.977805 3.52128e-32 0.209518
vt 33.7575 9.02362
vt 27.4912 9.02362
f 112/335/66 111/336/67 135/337/67 134/338/66 

vt 22.6831 -1.55321e-30
vt 28.9494 -1.55321e-30
vn 0.998714 3.207e-32 -0.0506954
vt 28.9494 9.02362
vt 22.6831 9.02362
f 111/339/67 110/340/68 136/341/68 135/342/67 

vt 16.1156 -1.53362e-30
vt 22.3819 -1.53362e-30
vn 0.951563 2.67418e-32 -0.307454
vt 22.3819 9.02362
vt 16.1156 9.02362
f 110/343/68 109/344/69 137/345/69 136/346/68 

vt 8.23641 -1.3024e-30
vt 14.5027 -1.3024e-30
vn 0.839564 1.95911e-32 -0.543261
vt 14.5027 9.02362
vt 8.23641 9.02362
f 109/347/69 108/348/70 138/349/70 137/350/69 

vt -0.41762 -8.91575e-31
vt 5.84866 -8.91575e-31
vn 0.670351 1.11054e-32 -0.742045
vt 5.84866 9.02362
vt -0.41762 9.02362
f 108/351/70 107/352/71 139/353/71 138/354/70 

vt -9.25671 -3.73724e-31
vt -2.99043 -3.73724e-31
vn 0.455454 1.86279e-33 -0.89026
vt -2.99043 9.02362
vt -9.25671 9.02362
f 107/355/71 106/356/72 140/357/72 139/358/71 

vt -17.6785 1.54905e-31
vt -11.4122 1.54905e-31
vn 0.209518 -7.50673e-33 -0.977805
vt -11.4122 9.02362
vt -17.6785 9.02362
f 106/359/72 105/360/73 141/361/73 140/362/72 

vt -25.109 5.97297e-31
vt -18.8427 5.97297e-31
vn -0.0506954 -1.63647e-32 -0.998714
vt -18.8427 9.02362
vt -25.109 9.02362
f 105/363/73 104/364/74 142/365/74 141/366/73 

vt -31.0419 8.78625e-31
vt -24.7757 8.78625e-31
vn -0.307454 -2.41074e-32 -0.951563
vt -24.7757 9.02362
vt -31.0419 9.02362
f 104/367/74 103/368/75 143/369/75 142/370/74 

vt -35.0729 9.63314e-31
vt -28.8066 9.63314e-31
vn -0.543261 -3.02073e-32 -0.839564
vt -28.8066 9.02362
vt -35.0729 9.02362
f 103/371/75 102/372/76 144/373/76 143/374/75 

vt -36.9273 8.61867e-31
vt -30.661 8.61867e-31
vt -30.661 9.02362
vt -36.9273 9.02362
f 102/375/76 101/376/54 123/377/54 144/378/76 

